/* XPM */
static char * portal_xpm[] = {
"32 32 96 2",
"  	c None",
". 	c #EBC4FA",
"+ 	c #572D67",
"@ 	c #CA83E4",
"# 	c #EAC3F8",
"$ 	c #EBC3FA",
"% 	c #582D68",
"& 	c #FEFDFE",
"* 	c #FFFFFF",
"= 	c #C67FE0",
"- 	c #C67FDE",
"; 	c #C27FDC",
"> 	c #5C316C",
", 	c #5C306C",
"' 	c #C17CD9",
") 	c #BB79D4",
"! 	c #B877D0",
"~ 	c #592E69",
"{ 	c #5D3070",
"] 	c #B877D1",
"^ 	c #B070C8",
"/ 	c #AE6FC5",
"( 	c #5B306B",
"_ 	c #B173CA",
": 	c #A06AB7",
"< 	c #AD6FC5",
"[ 	c #FFFEFF",
"} 	c #AB6CC2",
"| 	c #9861AE",
"1 	c #9963B0",
"2 	c #A169B8",
"3 	c #B370CC",
"4 	c #FEFEFF",
"5 	c #A268B9",
"6 	c #925DA8",
"7 	c #935EA9",
"8 	c #9A62B0",
"9 	c #A96DC0",
"0 	c #FEFEFE",
"a 	c #9E63B4",
"b 	c #925EA8",
"c 	c #915CA6",
"d 	c #915DA7",
"e 	c #9460A9",
"f 	c #A16AB9",
"g 	c #5D3171",
"h 	c #9B63B1",
"i 	c #925EA7",
"j 	c #905BA5",
"k 	c #945EAA",
"l 	c #A067B7",
"m 	c #F5F4F7",
"n 	c #623576",
"o 	c #9C62B1",
"p 	c #905CA6",
"q 	c #955FAB",
"r 	c #A369BA",
"s 	c #5F3471",
"t 	c #9C64B3",
"u 	c #915CA7",
"v 	c #935DA8",
"w 	c #9961AE",
"x 	c #A96CC1",
"y 	c #613472",
"z 	c #A468BA",
"A 	c #9962AF",
"B 	c #9660AC",
"C 	c #9961AF",
"D 	c #B573CD",
"E 	c #613572",
"F 	c #C780DF",
"G 	c #582D69",
"H 	c #AD70C7",
"I 	c #A469BB",
"J 	c #9F67B6",
"K 	c #A36BBB",
"L 	c #C07CDA",
"M 	c #5F336F",
"N 	c #C881E1",
"O 	c #673A78",
"P 	c #B776CF",
"Q 	c #B071C8",
"R 	c #AD70C5",
"S 	c #BB78D2",
"T 	c #C57FDE",
"U 	c #5D316E",
"V 	c #653875",
"W 	c #6C3E7E",
"X 	c #6E407F",
"Y 	c #C47EDB",
"Z 	c #C881E2",
"` 	c #CA83E3",
" .	c #5F3370",
"..	c #623672",
"+.	c #C580DE",
"@.	c #C681E0",
"                                                                ",
"                                                                ",
"                                                                ",
"                                                    . .         ",
"                          + + + + + + + + +                     ",
"                    . . + + @ @ @ @ @ @ @ + +                   ",
"                    . # # @ @ @ @ @ @ @ @ @ +                   ",
"                    # # $ @ @ @ @ @ @ % @ @ + +                 ",
"                  + + $ $ @ @ @ @ @ @ % % @ @ +                 ",
"                  + @ @ @ @ & @ @ @ @ @ % @ @ +                 ",
"                + % @ @ @ * = - ; % % @ % % @ +                 ",
"                + > @ , , * ' ) ! ~ % % , % @ # . .             ",
"                + > @ % { * ] ^ ~ / ( % % % @ # . .             ",
"                + > @ % > * _ ~ ~ : < % % % @ + .               ",
"                + > @ % % [ } ~ | 1 2 3 % % @ +                 ",
"                + > @ , % 4 5 ~ 6 7 8 9 % , @ +                 ",
"                + > @ , % 0 a b c d e f % g @ +                 ",
"                + > @ , % 0 h i j j k l ~ m @ +                 ",
"                + > @ @ n 0 o 6 p p q r ~ m @ +                 ",
"                + > @ @ s 0 t 7 u v w x % & @ +                 ",
"                + > @ @ y ~ z A B C 5 D E & @ +                 ",
"                + > @ @ F G H I J K ( L M & @ +                 ",
"                + > @ @ N O P Q R ~ S T U @ @ +                 ",
"                + + @ @ @ E V W X % Y Z , @ @ +                 ",
"                  + @ @ @ `  ...+.@.Z , @ @ @ +                 ",
"                  + + @ @ @ @ U ` @ @ @ @ @ @ +           . .   ",
"                    + + @ @ @ @ @ @ @ @ @ @ + +           . .   ",
"                      + + @ @ @ @ @ @ @ @ $ +                   ",
"                        + + @ @ @ @ @ @ + # +                   ",
"                          + + + + + + + + .                     ",
"                              + +                               ",
"                                                                "};
