/* XPM */
static char * sushi_xpm[] = {
"32 32 6 1",
" 	c None",
".	c #000000",
"+	c #FFFFFF",
"@	c #848484",
"#	c #E48425",
"$	c #E42525",
"                                ",
"                                ",
"                                ",
"                                ",
"                                ",
"                                ",
"                                ",
"                                ",
"                                ",
"                                ",
"                                ",
"                                ",
"           ..........           ",
"          .++..@@@@...          ",
"         .++++..@@@@...         ",
"         .+##+.........         ",
"         .+#$+.........         ",
"         .+#$+.........         ",
"         .+$$+.........         ",
"         .++++.........         ",
"          .++.........          ",
"           ..........           ",
"                                ",
"                                ",
"                                ",
"                                ",
"                                ",
"                                ",
"                                ",
"                                ",
"                                ",
"                                "};
