/* XPM */
static char * wall_xpm[] = {
"35 35 44 1",
" 	c #191919",
".	c #1E1C1E",
"+	c #231F23",
"@	c #1A191A",
"#	c #1A1A1B",
"$	c #262227",
"%	c #564657",
"&	c #645266",
"*	c #725974",
"=	c #58485A",
"-	c #745976",
";	c #725873",
">	c #242024",
",	c #38313A",
"'	c #2A252B",
")	c #775A79",
"!	c #785B7A",
"~	c #795B7B",
"{	c #765A78",
"]	c #2B262B",
"^	c #745975",
"/	c #755977",
"(	c #2B262C",
"_	c #946993",
":	c #9E6E9B",
"<	c #9A6D98",
"[	c #383138",
"}	c #332D33",
"|	c #9A6D97",
"1	c #433A44",
"2	c #403741",
"3	c #2F2A30",
"4	c #302930",
"5	c #242125",
"6	c #302A2F",
"7	c #252225",
"8	c #2F292F",
"9	c #252125",
"0	c #2B252B",
"a	c #282428",
"b	c #292529",
"c	c #2A242A",
"d	c #9C6E99",
"e	c #302931",
"    .++@++++ #++++ #+++++++@++++++ ",
" +$%&**=*--;>,;--;>,;-----;';----;+",
"+;-)!~~-~~~{]^~~~{]^~~~/~~{({~/))-+",
"+-)!_:<[<::<}<:::<}<::|1|:<}<|2-)-+",
"+-)-334546645466645466474645489-)-+",
"+-)-0;-----------------------;0-)-+",
"+-)-0-)))))))))))))))))))))))-0-)-+",
"+;-;0-)))))))))))))))))))))))-0{~{>",
" +++>-)))))))))))))))))))))))-4<:<a",
" +++>-)))))))))))))))))))))))->868@",
"+;-;0-)))))))))))))))))))))))-0;-;+",
"+-)-0-)))))))))))))))))))))))-0-)-+",
"+-)-0-)))))))))))))))))))))))-0{~{>",
"+-)-0-)))))))))))))))))))))))-4<:<a",
"+-)-0-)))))))))))))))))))))))->83b ",
"+-)-0-)))))))))))))))))))))))-0;;c ",
"+-)-0-)))))))))))))))))))))))-0-);+",
"+-)-0-)))))))))))))))))))))))-0-)-+",
"+;)-0-)))))))))))))))))))))))-0-)-+",
" c;;0-)))))))))))))))))))))))-0-)-+",
" b38>-)))))))))))))))))))))))-0-)-+",
"a<:<4-)))))))))))))))))))))))-0-)-+",
">{~{0-)))))))))))))))))))))))-0-)-+",
"+-)-0-)))))))))))))))))))))))-0-)-+",
"+;-;0-)))))))))))))))))))))))-0;-;+",
"@868>-)))))))))))))))))))))))->+++ ",
"a<:<4-)))))))))))))))))))))))->+++ ",
">{~{0-)))))))))))))))))))))))-0;-;+",
"+-)-0-)))))))))))))))))))))))-0-)-+",
"+-)-0;-----------------------;0-)-+",
"+-)-984546474664546664546645433-)-+",
"+-)-2|<}<:|1|::<}<:::<}<::<}<:d~)-+",
"+-))/~{({~~/~~~^]{~~~^]{~~{({~~-)-+",
"+;----;';-----;,>;--;,>;--;';-;e;;+",
" ++++++@+++++++# ++++# ++++@+++@++ "};
