/* XPM */
static char * wall_xpm[] = {
"35 35 50 1",
" 	c #222222",
".	c #232322",
"+	c #2B2826",
"@	c #322D2A",
"#	c #242323",
"$	c #252424",
"%	c #38312E",
"&	c #7E695B",
"*	c #947B6B",
"=	c #A58977",
"-	c #826C5E",
";	c #A78A78",
">	c #A48876",
",	c #342E2B",
"'	c #534541",
")	c #3D3531",
"!	c #A78B78",
"~	c #AA8D7A",
"{	c #AB8E7B",
"]	c #AC907C",
"^	c #AC8F7C",
"/	c #A98D7A",
"(	c #3E3632",
"_	c #A68B78",
":	c #A88B78",
"<	c #3F3732",
"[	c #C4AF9A",
"}	c #CEBAA4",
"|	c #CAB6A1",
"1	c #504841",
"2	c #49433C",
"3	c #CAB7A2",
"4	c #62544D",
"5	c #5E4F49",
"6	c #443D38",
"7	c #443D37",
"8	c #342F2C",
"9	c #443E38",
"0	c #35302D",
"a	c #433D37",
"b	c #352F2C",
"c	c #3E3631",
"d	c #332E2B",
"e	c #393531",
"f	c #242423",
"g	c #3A3632",
"h	c #232323",
"i	c #3D3530",
"j	c #CCB8A3",
"k	c #463C36",
"   .+@@#@@@@.$@@@@.$@@@@@@@#@@@@@@.",
".@%&*==-=;;>,'>;;>,'>;;;;;>)>;;;;>@",
"@>!~{]^!^]]/(_^]]/(_^]^:^]/</^:~~;@",
"@;~{[}|1|}}|2|}}}|2|}}343}|2|35!~;@",
"@;~!6678799787999787997079787ab;~;@",
"@;~;c>;;;;;;;;;;;;;;;;;;;;;;;>c;~;@",
"@;~;c;~~~~~~~~~~~~~~~~~~~~~~~;c;~;@",
"@>;>c;~~~~~~~~~~~~~~~~~~~~~~~;c/]/d",
".@@@d;~~~~~~~~~~~~~~~~~~~~~~~;7|}|e",
".@@@d;~~~~~~~~~~~~~~~~~~~~~~~;,a9af",
"@>;>c;~~~~~~~~~~~~~~~~~~~~~~~;c>;>@",
"@;~;c;~~~~~~~~~~~~~~~~~~~~~~~;c;~;@",
"@;~;c;~~~~~~~~~~~~~~~~~~~~~~~;c/]/d",
"@;~;c;~~~~~~~~~~~~~~~~~~~~~~~;7|}|e",
"@;~;c;~~~~~~~~~~~~~~~~~~~~~~~;,a6gh",
"@;~;c;~~~~~~~~~~~~~~~~~~~~~~~;c>>i.",
"@;~;c;~~~~~~~~~~~~~~~~~~~~~~~;c;~>@",
"@;~;c;~~~~~~~~~~~~~~~~~~~~~~~;c;~;@",
"@>~;c;~~~~~~~~~~~~~~~~~~~~~~~;c;~;@",
".i>>c;~~~~~~~~~~~~~~~~~~~~~~~;c;~;@",
"hg6a,;~~~~~~~~~~~~~~~~~~~~~~~;c;~;@",
"e|}|7;~~~~~~~~~~~~~~~~~~~~~~~;c;~;@",
"d/]/c;~~~~~~~~~~~~~~~~~~~~~~~;c;~;@",
"@;~;c;~~~~~~~~~~~~~~~~~~~~~~~;c;~;@",
"@>;>c;~~~~~~~~~~~~~~~~~~~~~~~;c>;>@",
"fa9a,;~~~~~~~~~~~~~~~~~~~~~~~;d@@@.",
"e|}|7;~~~~~~~~~~~~~~~~~~~~~~~;d@@@.",
"d/]/c;~~~~~~~~~~~~~~~~~~~~~~~;c>;>@",
"@;~;c;~~~~~~~~~~~~~~~~~~~~~~~;c;~;@",
"@;~;c>;;;;;;;;;;;;;;;;;;;;;;;>c;~;@",
"@;~;ba7879707997879997879978766!~;@",
"@;~!53|2|}343}}|2|}}}|2|}}|2|}j^~;@",
"@;~~:^/</]^:^]^_(/]]^_(/]]/</]^!~;@",
"@>;;;;>)>;;;;;>',>;;>',>;;>)>;>k>>@",
".@@@@@@#@@@@@@@$.@@@@$.@@@@#@@@#@@."};
